<mxfile host="app.diagrams.net" modified="2024-04-09T16:53:58.240Z" agent="Mozilla/5.0 (Macintosh; Intel Mac OS X 10_15_7) AppleWebKit/537.36 (KHTML, like Gecko) Chrome/123.0.0.0 Safari/537.36" etag="UWigZDeJEhHiZZjO_SZO" version="24.2.3" type="device">
  <diagram name="Página-1" id="hct_zwlatr9s3PlGcYt8">
    <mxGraphModel dx="984" dy="566" grid="1" gridSize="10" guides="1" tooltips="1" connect="1" arrows="1" fold="1" page="1" pageScale="1" pageWidth="827" pageHeight="1169" math="0" shadow="0">
      <root>
        <mxCell id="0" />
        <mxCell id="1" parent="0" />
        <mxCell id="lhbC4SCB4tCPhIpgXOIC-1" value="" style="swimlane;childLayout=stackLayout;resizeParent=1;resizeParentMax=0;startSize=20;horizontal=0;horizontalStack=1;" vertex="1" parent="1">
          <mxGeometry x="80" y="70" width="260" height="570" as="geometry" />
        </mxCell>
        <mxCell id="lhbC4SCB4tCPhIpgXOIC-2" value="GERENTE DE PRODUCCIÓN" style="swimlane;startSize=20;" vertex="1" parent="lhbC4SCB4tCPhIpgXOIC-1">
          <mxGeometry x="20" width="240" height="570" as="geometry" />
        </mxCell>
        <mxCell id="lhbC4SCB4tCPhIpgXOIC-7" value="" style="ellipse;html=1;shape=startState;fillColor=#000000;strokeColor=#ff0000;" vertex="1" parent="lhbC4SCB4tCPhIpgXOIC-2">
          <mxGeometry x="95" y="50" width="30" height="30" as="geometry" />
        </mxCell>
        <mxCell id="lhbC4SCB4tCPhIpgXOIC-8" value="" style="edgeStyle=orthogonalEdgeStyle;html=1;verticalAlign=bottom;endArrow=open;endSize=8;strokeColor=#ff0000;rounded=0;" edge="1" source="lhbC4SCB4tCPhIpgXOIC-7" parent="lhbC4SCB4tCPhIpgXOIC-2">
          <mxGeometry relative="1" as="geometry">
            <mxPoint x="110" y="140" as="targetPoint" />
          </mxGeometry>
        </mxCell>
        <mxCell id="lhbC4SCB4tCPhIpgXOIC-9" value="Seleccionar orden de trabajo" style="rounded=1;arcSize=10;whiteSpace=wrap;html=1;align=center;" vertex="1" parent="lhbC4SCB4tCPhIpgXOIC-2">
          <mxGeometry x="60" y="140" width="100" height="40" as="geometry" />
        </mxCell>
        <mxCell id="lhbC4SCB4tCPhIpgXOIC-11" value="" style="endArrow=classic;html=1;rounded=0;" edge="1" parent="lhbC4SCB4tCPhIpgXOIC-2">
          <mxGeometry width="50" height="50" relative="1" as="geometry">
            <mxPoint x="110" y="180" as="sourcePoint" />
            <mxPoint x="110" y="210" as="targetPoint" />
          </mxGeometry>
        </mxCell>
        <mxCell id="lhbC4SCB4tCPhIpgXOIC-12" value="Supervisar orden de trabajo" style="rounded=1;arcSize=10;whiteSpace=wrap;html=1;align=center;" vertex="1" parent="lhbC4SCB4tCPhIpgXOIC-2">
          <mxGeometry x="60" y="210" width="100" height="40" as="geometry" />
        </mxCell>
        <mxCell id="lhbC4SCB4tCPhIpgXOIC-13" value="Hay stock de materia prima?" style="rhombus;whiteSpace=wrap;html=1;fontColor=#000000;fillColor=#ffffc0;strokeColor=#ff0000;" vertex="1" parent="lhbC4SCB4tCPhIpgXOIC-2">
          <mxGeometry x="60" y="280" width="80" height="40" as="geometry" />
        </mxCell>
        <mxCell id="lhbC4SCB4tCPhIpgXOIC-14" value="si" style="edgeStyle=orthogonalEdgeStyle;html=1;align=left;verticalAlign=bottom;endArrow=open;endSize=8;strokeColor=#ff0000;rounded=0;" edge="1" source="lhbC4SCB4tCPhIpgXOIC-13" parent="lhbC4SCB4tCPhIpgXOIC-2">
          <mxGeometry x="-1" relative="1" as="geometry">
            <mxPoint x="180" y="360" as="targetPoint" />
          </mxGeometry>
        </mxCell>
        <mxCell id="lhbC4SCB4tCPhIpgXOIC-15" value="no&lt;div&gt;&lt;br&gt;&lt;/div&gt;" style="edgeStyle=orthogonalEdgeStyle;html=1;align=left;verticalAlign=top;endArrow=open;endSize=8;strokeColor=#ff0000;rounded=0;exitX=0;exitY=0.5;exitDx=0;exitDy=0;" edge="1" source="lhbC4SCB4tCPhIpgXOIC-13" parent="lhbC4SCB4tCPhIpgXOIC-2">
          <mxGeometry x="-0.4545" y="-14" relative="1" as="geometry">
            <mxPoint x="30" y="360" as="targetPoint" />
            <Array as="points">
              <mxPoint x="30" y="300" />
            </Array>
            <mxPoint x="4" y="-10" as="offset" />
          </mxGeometry>
        </mxCell>
        <mxCell id="lhbC4SCB4tCPhIpgXOIC-16" value="" style="endArrow=classic;html=1;rounded=0;entryX=0.5;entryY=0;entryDx=0;entryDy=0;" edge="1" parent="lhbC4SCB4tCPhIpgXOIC-2" target="lhbC4SCB4tCPhIpgXOIC-13">
          <mxGeometry width="50" height="50" relative="1" as="geometry">
            <mxPoint x="100" y="250" as="sourcePoint" />
            <mxPoint x="80" y="280" as="targetPoint" />
          </mxGeometry>
        </mxCell>
        <mxCell id="lhbC4SCB4tCPhIpgXOIC-17" value="Generar solicitud de materia prima" style="rounded=1;arcSize=10;whiteSpace=wrap;html=1;align=center;" vertex="1" parent="lhbC4SCB4tCPhIpgXOIC-2">
          <mxGeometry x="10" y="360" width="100" height="40" as="geometry" />
        </mxCell>
        <mxCell id="lhbC4SCB4tCPhIpgXOIC-18" value="Asignar orden de trabajo" style="rounded=1;arcSize=10;whiteSpace=wrap;html=1;align=center;" vertex="1" parent="lhbC4SCB4tCPhIpgXOIC-2">
          <mxGeometry x="130" y="360" width="100" height="40" as="geometry" />
        </mxCell>
        <mxCell id="lhbC4SCB4tCPhIpgXOIC-19" value="" style="endArrow=classic;html=1;rounded=0;entryX=0;entryY=0.5;entryDx=0;entryDy=0;" edge="1" parent="lhbC4SCB4tCPhIpgXOIC-2" target="lhbC4SCB4tCPhIpgXOIC-20">
          <mxGeometry width="50" height="50" relative="1" as="geometry">
            <mxPoint x="230" y="380" as="sourcePoint" />
            <mxPoint x="290" y="380" as="targetPoint" />
          </mxGeometry>
        </mxCell>
        <mxCell id="lhbC4SCB4tCPhIpgXOIC-6" value="OPERARIO" style="swimlane;startSize=20;" vertex="1" parent="1">
          <mxGeometry x="340" y="70" width="240" height="570" as="geometry" />
        </mxCell>
        <mxCell id="lhbC4SCB4tCPhIpgXOIC-20" value="Seleccionar orden de trabajo" style="rounded=1;arcSize=10;whiteSpace=wrap;html=1;align=center;" vertex="1" parent="lhbC4SCB4tCPhIpgXOIC-6">
          <mxGeometry x="60" y="360" width="100" height="40" as="geometry" />
        </mxCell>
        <mxCell id="lhbC4SCB4tCPhIpgXOIC-21" value="Asignar orden de trabajo" style="rounded=1;arcSize=10;whiteSpace=wrap;html=1;align=center;" vertex="1" parent="lhbC4SCB4tCPhIpgXOIC-6">
          <mxGeometry x="60" y="430" width="100" height="40" as="geometry" />
        </mxCell>
        <mxCell id="lhbC4SCB4tCPhIpgXOIC-23" value="" style="endArrow=classic;html=1;rounded=0;entryX=0.5;entryY=0;entryDx=0;entryDy=0;" edge="1" parent="lhbC4SCB4tCPhIpgXOIC-6" target="lhbC4SCB4tCPhIpgXOIC-21">
          <mxGeometry width="50" height="50" relative="1" as="geometry">
            <mxPoint x="110" y="400" as="sourcePoint" />
            <mxPoint x="74" y="430" as="targetPoint" />
          </mxGeometry>
        </mxCell>
        <mxCell id="lhbC4SCB4tCPhIpgXOIC-24" value="" style="ellipse;html=1;shape=endState;fillColor=#000000;strokeColor=#ff0000;" vertex="1" parent="lhbC4SCB4tCPhIpgXOIC-6">
          <mxGeometry x="95" y="515" width="30" height="30" as="geometry" />
        </mxCell>
        <mxCell id="lhbC4SCB4tCPhIpgXOIC-25" value="" style="endArrow=classic;html=1;rounded=0;entryX=0.5;entryY=0;entryDx=0;entryDy=0;exitX=0.5;exitY=1;exitDx=0;exitDy=0;" edge="1" parent="lhbC4SCB4tCPhIpgXOIC-6" source="lhbC4SCB4tCPhIpgXOIC-21" target="lhbC4SCB4tCPhIpgXOIC-24">
          <mxGeometry width="50" height="50" relative="1" as="geometry">
            <mxPoint x="100" y="480" as="sourcePoint" />
            <mxPoint x="150" y="430" as="targetPoint" />
          </mxGeometry>
        </mxCell>
      </root>
    </mxGraphModel>
  </diagram>
</mxfile>
